<?xml version="1.0" encoding="UTF-8" standalone="no"?>
<!-- Created with Inkscape (http://www.inkscape.org/) -->

<svg
   xmlns:dc="http://purl.org/dc/elements/1.1/"
   xmlns:cc="http://creativecommons.org/ns#"
   xmlns:rdf="http://www.w3.org/1999/02/22-rdf-syntax-ns#"
   xmlns:svg="http://www.w3.org/2000/svg"
   xmlns="http://www.w3.org/2000/svg"
   xmlns:sodipodi="http://sodipodi.sourceforge.net/DTD/sodipodi-0.dtd"
   xmlns:inkscape="http://www.inkscape.org/namespaces/inkscape"
   width="599.44641"
   height="446.87222"
   id="svg2"
   version="1.1"
   inkscape:version="0.48.5 r10040"
   sodipodi:docname="whirpool.svg">
  <defs
     id="defs4" />
  <sodipodi:namedview
     id="base"
     pagecolor="#ffffff"
     bordercolor="#666666"
     borderopacity="1.0"
     inkscape:pageopacity="0.0"
     inkscape:pageshadow="2"
     inkscape:zoom="0.35"
     inkscape:cx="157.58036"
     inkscape:cy="347.72183"
     inkscape:document-units="px"
     inkscape:current-layer="layer1"
     showgrid="false"
     inkscape:window-width="1366"
     inkscape:window-height="664"
     inkscape:window-x="-8"
     inkscape:window-y="-8"
     inkscape:window-maximized="1"
     fit-margin-top="0"
     fit-margin-left="0"
     fit-margin-right="0"
     fit-margin-bottom="0" />
  <metadata
     id="metadata7">
    <rdf:RDF>
      <cc:Work
         rdf:about="">
        <dc:format>image/svg+xml</dc:format>
        <dc:type
           rdf:resource="http://purl.org/dc/dcmitype/StillImage" />
        <dc:title></dc:title>
      </cc:Work>
    </rdf:RDF>
  </metadata>
  <g
     inkscape:label="Layer 1"
     inkscape:groupmode="layer"
     id="layer1"
     transform="translate(-217.41964,-457.4975)">
    <path
       style="fill:#040404"
       d="m 482.62062,899.31772 c -9.51895,-6.70646 -22.0593,-18.60552 -28.26838,-26.8228 -4.96822,-6.57508 -11.98615,-19.25805 -11.98615,-21.66165 0,-0.88042 3.70455,-0.28299 12.75118,2.05638 18.61206,4.81289 31.49856,6.45329 50.69525,6.45329 l 16.68976,0 -2.03879,2.86321 c -1.12133,1.57476 -6.36661,7.08726 -11.65617,12.25 -11.61017,11.33179 -15.34419,16.49968 -17.43161,24.12536 l -1.58444,5.78821 -7.17065,-5.052 z m 27.96394,-50.03789 c -13.62137,-1.66366 -31.74374,-9.26254 -43.21847,-18.12191 -5.97522,-4.61332 -12.43557,-11.61707 -14.12674,-15.31498 -1.79338,-3.92137 -2.60131,-12.03789 -1.12326,-11.28425 29.6175,15.1016 41.94454,18.20076 78.75,19.79863 13.2,0.57306 29.16878,1.30529 35.48618,1.62718 l 11.48619,0.58525 -6.02503,5.66311 c -13.93634,13.0992 -38.21274,19.85809 -61.22887,17.04697 z m 23.78153,-30.63179 c -7.77607,-0.83276 -20.97557,-3.54488 -28.96897,-5.95231 -27.09815,-8.16134 -56.96205,-31.75341 -57.02126,-45.046 -0.009,-2.05568 0.75844,-1.82451 12.24023,3.68634 34.9748,16.78666 71.98573,22.99405 137.15499,23.00333 l 24.90499,0.004 -1.90499,2.12159 c -5.99093,6.6721 -21.42947,14.61538 -35.7285,18.38265 -14.96458,3.94262 -35.18874,5.45948 -50.67649,3.80086 z m 27.5,-33.91513 c -24.36001,-1.90794 -51.59245,-7.61331 -71,-14.87495 -20.26757,-7.58344 -43.11394,-20.94529 -51.93709,-30.37576 l -2.93709,-3.13926 7.63632,0 c 9.95057,0 24.62171,2.89866 43.23786,8.54275 44.01435,13.34439 49.93462,14.77582 68,16.44141 14.99428,1.38243 28.67919,1.27689 59.13336,-0.45607 14.22665,-0.80954 30.79564,-1.7534 36.81997,-2.09746 12.76806,-0.7292 12.83403,-0.43445 1.57751,7.04887 -12.55639,8.34747 -28.12875,13.97484 -46.99922,16.98407 -9.63955,1.5372 -34.47092,2.63606 -43.53162,1.9264 z m 30,-43.02453 C 489.34431,737.54194 420.01804,720.08557 373.04382,686.6089 c -8.39886,-5.98553 -25.90147,-22.62047 -31.58157,-30.01596 -3.77883,-4.92003 -3.18045,-5.19297 5.74993,-2.6228 9.81255,2.82406 19.9405,7.16813 45.15391,19.3674 29.75889,14.39854 55.34978,23.34836 95.5,33.3989 105.34767,26.37098 194.18111,24.31518 253.92537,-5.87638 3.8089,-1.92484 7.0867,-3.33834 7.284,-3.14111 0.8853,0.88536 -2.0879,10.55421 -4.8242,15.68804 -7.2532,13.60838 -21.6104,21.73658 -46.88517,26.54354 -6.89036,1.31046 -16.92693,1.66076 -53,1.84978 -24.475,0.12825 -48.1,0.0869 -52.5,-0.0919 z m -18,-37.49483 C 517.9924,700.59417 455.64933,688.15077 396.13434,668.73908 361.32187,657.38447 344.34555,650.06424 328.36609,639.51722 318.5326,633.02676 306.92831,621.8648 302.9414,615.06166 c -1.52094,-2.5953 -3.36401,-4.71872 -4.0957,-4.71872 -2.59108,0 -28.10223,-8.19077 -36.47961,-11.71238 -20.71258,-8.70696 -35.43431,-20.31737 -41.61245,-32.81797 -3.35045,-6.77917 -3.62216,-7.95816 -3.16023,-13.71274 1.57744,-19.65166 19.68703,-34.99314 60.27894,-51.06514 36.49571,-14.45013 75.49201,-22.59491 130.24374,-27.20272 l 7.25,-0.61015 0,3.40901 0,3.40901 -8.75,1.19707 c -13.91419,1.90356 -42.43623,7.83512 -55.85024,11.61484 -32.70574,9.21562 -59.90792,22.80402 -72.69338,36.31278 -7.25505,7.66549 -9.95673,13.52871 -9.95532,21.60519 0.001,8.15167 3.05381,14.46952 10.69996,22.14687 4.75938,4.77881 17.43095,13.43752 19.64508,13.42383 0.22215,-10e-4 0.44319,-2.8385 0.4912,-6.30474 0.30847,-22.26798 27.19819,-42.55606 69.36451,-52.33495 10.98552,-2.54768 35.14749,-4.30265 40.55436,-2.94562 l 2.7814,0.69809 -2.26014,1.58306 c -1.24307,0.87068 -9.64612,4.88297 -18.67344,8.91618 -39.27872,17.54892 -52.8644,26.93336 -54.92989,37.94336 -1.49636,7.97631 5.84758,17.35275 19.69503,25.14578 6.98011,3.92825 25.56464,10.9509 26.50132,10.01422 0.23222,-0.23221 -0.70799,-2.85011 -2.08935,-5.81754 -7.29838,-15.67839 1.9475,-27.44439 28.52677,-36.30223 15.94094,-5.31249 43.17707,-10.4003 41.54584,-7.76092 -1.37053,2.21756 -9.21953,6.10299 -19.60371,9.70427 -19.90495,6.90312 -26.74947,12.06124 -27.7469,20.91041 -0.6935,6.15274 0.2228,8.96725 4.43864,13.63368 9.10861,10.08214 29.38308,16.73183 65.80826,21.58401 18.68637,2.48921 66.86368,2.48656 85,-0.005 34.67029,-4.76235 57.35097,-12.68343 69.15451,-24.15177 12.27819,-11.92952 8.60406,-22.55117 -13.15451,-38.02879 l -7,-4.97934 6.79348,-0.29668 c 17.83617,-0.77893 36.43184,9.36021 43.44064,23.68567 2.32355,4.74917 2.72616,6.79501 2.62907,13.35949 -0.0631,4.26333 0.0673,7.75152 0.2896,7.75152 0.22233,0 3.20391,-1.40306 6.62573,-3.11791 17.79152,-8.91625 30.63203,-22.57852 30.69952,-32.66421 0.0765,-11.43106 -9.35221,-19.59087 -42.47804,-36.76111 -17.72222,-9.18603 -26.61051,-14.6544 -30,-18.45701 l -2,-2.24377 4.5,0.68534 c 48.35128,7.36383 76.07727,17.7474 93.25417,34.9243 7.936,7.93604 12.4503,16.33641 14.6695,27.29753 l 1.7216,8.5039 10.0186,-9.83336 c 13.1487,-12.90567 16.8361,-19.87322 16.8361,-31.81233 0,-6.81903 -0.4328,-8.90259 -2.8885,-13.90376 -5.5605,-11.32476 -19.8571,-23.21151 -40.1326,-33.36796 -18.58035,-9.30732 -45.12479,-18.69992 -64.05922,-22.66698 -10.30923,-2.15995 -17.65408,-5.1738 -20.92241,-8.58521 -3.49037,-3.64316 -4.34534,-3.59546 16.69104,-0.93138 42.82969,5.42401 81.97149,16.27204 113.31169,31.404 24.8723,12.00904 41.2849,25.5268 47.8717,39.42798 2.7413,5.78537 3.1283,7.654 3.1283,15.10228 0,9.63764 -2.1569,15.53299 -9.1377,24.97535 -21.93,29.66306 -109.10946,58.57987 -200.46573,66.49309 -51.53193,4.46366 -128.72102,4.0085 -179.89654,-1.06081 -28.80847,-2.85368 -70.21711,-9.61822 -87.8767,-14.35558 -3.35172,-0.89913 -3.47339,-0.85873 -1.6233,0.53896 4.43125,3.34767 29.98002,15.62189 41.12573,19.75774 58.88516,21.85061 123.876,35.97475 186.87427,40.61248 18.02787,1.32715 57.30189,1.33039 74.55011,0.006 44.96845,-3.45249 84.79606,-12.21867 120.61186,-26.54705 9.0713,-3.62907 16.6754,-6.4163 16.8978,-6.19384 0.2225,0.22246 -1.1755,3.70132 -3.1065,7.73081 -2.5448,5.31007 -5.4984,9.30506 -10.7322,14.51624 -16.0407,15.97159 -35.1003,22.15821 -87.72107,28.47381 -42.28167,5.0747 -68.96184,6.09594 -102.5,3.92341 z m -32.54494,-38.96169 c -31.46853,-1.50164 -107.95506,-9.26194 -107.95506,-10.95309 0,-0.95735 6.56153,-2.72627 15,-4.04385 9.19179,-1.4352 27.83003,-0.69354 52,2.06923 24.84589,2.84002 46.96661,2.48501 96,-1.5407 80.67632,-6.62363 136.22647,-22.53152 185.35487,-53.08009 l 11.8717,-7.38197 -0.6864,3.76077 c -1.3246,7.25701 -7.4131,18.08864 -14.229,25.31382 -15.9336,16.89041 -38.9163,27.00939 -80.6912,35.52717 -47.30417,9.64518 -99.23748,13.06908 -156.66491,10.32871 z M 489.86609,617.2447 c -16.19321,-1.68451 -28.47361,-5.5933 -36.28051,-11.54792 -3.83498,-2.92508 -8.57389,-9.9879 -7.89267,-11.76314 0.5354,-1.39522 11.39133,-4.6774 23.17318,-7.00617 12.5149,-2.47366 33.87171,-4.56435 46.73358,-4.5749 14.23243,-0.0117 42.88389,2.51012 51.6704,4.54784 17.57683,4.07631 23.44553,10.83449 15.82364,18.22191 -4.44688,4.31009 -12.08082,6.72809 -28.97502,9.17766 -26.083,3.78189 -46.99273,4.74019 -64.2526,2.94472 z"
       id="path2987"
       inkscape:connector-curvature="0" />
  </g>
</svg>
