<?xml version="1.0" encoding="UTF-8" standalone="no"?>
<!-- Created with Inkscape (http://www.inkscape.org/) -->

<svg
   xmlns:dc="http://purl.org/dc/elements/1.1/"
   xmlns:cc="http://creativecommons.org/ns#"
   xmlns:rdf="http://www.w3.org/1999/02/22-rdf-syntax-ns#"
   xmlns:svg="http://www.w3.org/2000/svg"
   xmlns="http://www.w3.org/2000/svg"
   xmlns:sodipodi="http://sodipodi.sourceforge.net/DTD/sodipodi-0.dtd"
   xmlns:inkscape="http://www.inkscape.org/namespaces/inkscape"
   width="200"
   height="200"
   viewBox="0 0 52.916666 52.916666"
   version="1.1"
   id="svg6613"
   inkscape:version="0.92.2 5c3e80d, 2017-08-06"
   sodipodi:docname="champions.svg">
  <defs
     id="defs6607" />
  <sodipodi:namedview
     id="base"
     pagecolor="#ffffff"
     bordercolor="#666666"
     borderopacity="1.0"
     inkscape:pageopacity="0.0"
     inkscape:pageshadow="2"
     inkscape:zoom="1.979899"
     inkscape:cx="74.761965"
     inkscape:cy="51.717845"
     inkscape:document-units="mm"
     inkscape:current-layer="layer1"
     showgrid="false"
     units="px"
     inkscape:window-width="1680"
     inkscape:window-height="939"
     inkscape:window-x="0"
     inkscape:window-y="1"
     inkscape:window-maximized="1" />
  <metadata
     id="metadata6610">
    <rdf:RDF>
      <cc:Work
         rdf:about="">
        <dc:format>image/svg+xml</dc:format>
        <dc:type
           rdf:resource="http://purl.org/dc/dcmitype/StillImage" />
        <dc:title />
      </cc:Work>
    </rdf:RDF>
  </metadata>
  <g
     inkscape:label="Layer 1"
     inkscape:groupmode="layer"
     id="layer1"
     transform="translate(0,-244.08334)">
    <g
       id="g1742"
       transform="matrix(1.4880952,0,0,-1.4880952,-35.345683,1061.2659)">
      <path
         inkscape:connector-curvature="0"
         id="path38"
         style="fill:#0d0d0d;fill-opacity:1;fill-rule:nonzero;stroke:none"
         d="m 31.4523,531.3667 c 0,5.567 4.513,10.08 10.08,10.08 5.567,0 10.08,-4.513 10.08,-10.08 0,-5.567 -4.513,-10.08 -10.08,-10.08 -5.567,0 -10.08,4.513 -10.08,10.08" />
      <path
         inkscape:connector-curvature="0"
         id="path40"
         style="fill:#0d0d0d;fill-opacity:1;fill-rule:nonzero;stroke:none"
         d="m 39.6998,522.2114 c -3.404,0.11 -5.422,0.991 -5.999,2.616 -1.297,3.656 6.395,9.297 6.395,9.297 -1.895,-2.642 -2.58,-4.676 -1.98,-5.88 0.598,-1.203 2.327,-1.26 2.344,-1.26 0.072,-0.002 0.136,-0.003 0.201,-0.003 2.823,0 8.726,3.437 8.726,3.437 l -2.895,-3.898 c 0.236,0.066 2.895,0.558 2.895,0.558 0,0 -2.616,-3.191 -6.007,-4.219 -1.668,-0.53 -3.68,-0.648 -3.68,-0.648" />
      <path
         inkscape:connector-curvature="0"
         id="path42"
         style="fill:#0d0d0d;fill-opacity:1;fill-rule:nonzero;stroke:none"
         d="m 33.9366,529.5425 2.44,6.367 -3.613,-0.55 0.978,0.92 c 3.979,3.738 7.499,5.14 11.002,5.14 4.274,0 3.586,-5.247 3.586,-5.247 0,0 -1.96,1.921 -4.355,1.217 -3.789,-1.114 -8.314,-5.839 -8.363,-5.899 z" />
      <path
         inkscape:connector-curvature="0"
         id="path44"
         style="fill:#deb211;fill-opacity:1;fill-rule:nonzero;stroke:none"
         d="m 36.8614,536.3384 -3.15,-0.479 0.245,0.23 c 3.672,3.448 7.099,5.055 10.787,5.055 1.012,0 1.804,-0.318 2.355,-0.945 0.867,-0.986 0.972,-2.523 0.956,-3.359 -0.596,0.434 -1.682,1.056 -3.004,1.056 -0.394,0 -0.786,-0.057 -1.164,-0.168 -3.918,-1.152 -8.476,-5.951 -8.515,-5.998 l -0.497,-0.578 z" />
      <path
         inkscape:connector-curvature="0"
         id="path46"
         style="fill:#9f6e0e;fill-opacity:1;fill-rule:nonzero;stroke:none"
         d="m 39.7452,522.5376 c -3.253,0.107 -5.17,0.918 -5.698,2.407 -0.617,1.739 1.096,4.06 2.643,5.699 0.724,0.769 1.48,1.462 2.115,2.008 -1.134,-1.962 -1.444,-3.483 -0.92,-4.535 0.682,-1.37 2.598,-1.433 2.618,-1.433 0.07,-0.003 0.139,-0.004 0.208,-0.004 2.087,0 5.699,1.759 7.614,2.778 l -2.579,-3.471 0.88,0.244 c 0.119,0.034 1.052,0.212 1.945,0.379 -0.957,-0.976 -2.923,-2.738 -5.232,-3.438 -1.543,-0.489 -3.415,-0.622 -3.594,-0.634" />
      <path
         inkscape:connector-curvature="0"
         id="path48"
         style="fill:#ab890d;fill-opacity:1;fill-rule:nonzero;stroke:none"
         d="m 43.4772,524.4722 2.27,1.515 2.73,0.625 c 0,0 -2.308,-2.574 -5,-3.342 -2.692,-0.77 -3.293,-0.697 -4.783,-0.577 -1.491,0.12 -3.678,0.601 -4.327,1.779 -0.649,1.178 -0.529,2.38 0.528,3.846 1.058,1.466 1.515,1.851 2.116,2.548 0.601,0.697 1.394,1.322 1.394,1.322 l -1.947,-2.981 c 0,0 -0.601,-3.918 0.89,-4.663 1.49,-0.746 5.216,-0.433 6.129,-0.072" />
      <path
         inkscape:connector-curvature="0"
         id="path50"
         style="fill:#deb211;fill-opacity:1;fill-rule:nonzero;stroke:none"
         d="m 43.6696,524.6157 2.077,1.371 2.49,3.413 -3.028,-2.38 z" />
      <path
         inkscape:connector-curvature="0"
         id="path52"
         style="fill:#f1de4c;fill-opacity:1;fill-rule:nonzero;stroke:none"
         d="m 39.61,523.2163 c -2.003,0.07 -4.479,0.463 -4.997,1.92 -0.361,1.018 0.442,2.702 2.208,4.653 -0.105,-0.775 -0.009,-1.456 0.287,-2.051 0.859,-1.725 3.056,-1.832 3.246,-1.838 0.08,-0.003 0.157,-0.004 0.235,-0.004 1.404,0 3.354,0.679 5.223,1.517 l -2.045,-2.754 1.982,0.55 c -0.808,-0.565 -1.744,-1.088 -2.744,-1.39 -1.396,-0.444 -3.121,-0.582 -3.395,-0.603" />
      <path
         inkscape:connector-curvature="0"
         id="path54"
         style="fill:#9f6e0e;fill-opacity:1;fill-rule:nonzero;stroke:none"
         d="m 38.069,537.2358 -1.208,-0.897 -1.941,-5.112 c 0,0 3.028,3.149 5.144,4.543 2.115,1.395 3.509,2.091 4.986,2.126 1.318,0.03 1.48,-0.179 1.913,-0.395 0.433,-0.216 1.092,-0.661 1.092,-0.661 l -1.308,1.575 c 0,0 -5.914,0.24 -6.659,-0.097 -0.745,-0.337 -2.019,-1.082 -2.019,-1.082" />
      <path
         inkscape:connector-curvature="0"
         id="path56"
         style="fill:#664608;fill-opacity:1;fill-rule:nonzero;stroke:none"
         d="m 36.7946,537.2124 c -0.144,0 -0.861,-0.375 -0.861,-0.375 0,0 -2.349,-1.034 -2.222,-0.979 0.126,0.056 3.15,0.48 3.15,0.48 l 1.351,0.97 z" />
      <path
         inkscape:connector-curvature="0"
         id="path58"
         style="fill:#f1de4c;fill-opacity:1;fill-rule:nonzero;stroke:none"
         d="m 37.8639,537.1313 -1.931,-0.294 c 2.929,2.351 5.725,3.457 8.681,3.457 0.803,0 1.394,-0.227 1.805,-0.696 0.373,-0.425 0.57,-1.01 0.672,-1.558 -0.62,0.27 -1.353,0.468 -2.171,0.468 -0.463,0 -0.924,-0.066 -1.369,-0.197 -2.486,-0.731 -5.146,-2.788 -6.898,-4.34 z" />
    </g>
  </g>
</svg>
