<?xml version="1.0" encoding="UTF-8" standalone="no"?>
<!-- Created with Inkscape (http://www.inkscape.org/) -->

<svg
   xmlns:dc="http://purl.org/dc/elements/1.1/"
   xmlns:cc="http://creativecommons.org/ns#"
   xmlns:rdf="http://www.w3.org/1999/02/22-rdf-syntax-ns#"
   xmlns:svg="http://www.w3.org/2000/svg"
   xmlns="http://www.w3.org/2000/svg"
   xmlns:sodipodi="http://sodipodi.sourceforge.net/DTD/sodipodi-0.dtd"
   xmlns:inkscape="http://www.inkscape.org/namespaces/inkscape"
   width="200"
   height="200"
   viewBox="0 0 52.916666 52.916666"
   version="1.1"
   id="svg6613"
   inkscape:version="0.92.2 5c3e80d, 2017-08-06"
   sodipodi:docname="crime-syndicate.svg">
  <defs
     id="defs6607">
    <clipPath
       clipPathUnits="userSpaceOnUse"
       id="clipPath2442">
      <path
         d="M 0,0 H 576 V 576 H 0 Z"
         id="path2440"
         inkscape:connector-curvature="0" />
    </clipPath>
  </defs>
  <sodipodi:namedview
     id="base"
     pagecolor="#ffffff"
     bordercolor="#666666"
     borderopacity="1.0"
     inkscape:pageopacity="0.0"
     inkscape:pageshadow="2"
     inkscape:zoom="1.979899"
     inkscape:cx="-4.2824711"
     inkscape:cy="31.514794"
     inkscape:document-units="mm"
     inkscape:current-layer="layer1"
     showgrid="false"
     units="px"
     inkscape:window-width="1680"
     inkscape:window-height="936"
     inkscape:window-x="0"
     inkscape:window-y="1"
     inkscape:window-maximized="1" />
  <metadata
     id="metadata6610">
    <rdf:RDF>
      <cc:Work
         rdf:about="">
        <dc:format>image/svg+xml</dc:format>
        <dc:type
           rdf:resource="http://purl.org/dc/dcmitype/StillImage" />
        <dc:title />
      </cc:Work>
    </rdf:RDF>
  </metadata>
  <g
     inkscape:label="Layer 1"
     inkscape:groupmode="layer"
     id="layer1"
     transform="translate(0,-244.08334)">
    <g
       transform="matrix(1.4880952,0,0,-1.4880952,-436.23451,749.75238)"
       id="g2436">
      <g
         id="g2438"
         clip-path="url(#clipPath2442)">
        <g
           id="g2444"
           transform="translate(302.3548,321.9906)">
          <path
             d="m 0,0 c 0,4.825 3.912,8.737 8.737,8.737 4.824,0 8.736,-3.912 8.736,-8.737 0,-4.825 -3.912,-8.737 -8.736,-8.737 C 3.912,-8.737 0,-4.825 0,0"
             style="fill:#fbbc09;fill-opacity:1;fill-rule:nonzero;stroke:none"
             id="path2446"
             inkscape:connector-curvature="0" />
        </g>
        <g
           id="g2448"
           transform="translate(315.3766,329.8266)">
          <path
             d="m 0,0 c 0.721,-0.403 1.381,-0.904 1.96,-1.483 1.434,-1.435 2.383,-3.356 2.578,-5.494 h 1.095 v -1.64 H 4.538 C 4.343,-10.755 3.394,-12.676 1.96,-14.11 1.38,-14.69 0.721,-15.19 0,-15.593 v 0.326 c 0.644,0.376 1.236,0.834 1.76,1.358 1.383,1.382 2.3,3.232 2.493,5.292 h -1.97 v 0.651 H 1.087 V -9.049 H 0.853 v 1.083 H 0 v 0.363 h 0.853 v 1.122 h 0.234 v -1.122 h 1.196 v 0.626 h 1.97 C 4.06,-4.917 3.143,-3.067 1.76,-1.684 1.236,-1.16 0.644,-0.703 0,-0.327 Z M -5.267,2.283 V 1.085 C -6.538,0.956 -7.731,0.56 -8.787,-0.046 v -0.329 c 1.049,0.629 2.243,1.041 3.52,1.175 v -1.867 h 0.651 v -1.181 h -1.098 v -0.234 h 1.098 v -1.441 h -0.887 v -0.234 h 0.887 v -1.465 h -0.618 v -0.234 h 0.618 v -1.343 c -0.199,-0.056 -0.357,-0.209 -0.421,-0.404 h -1.302 v 0.646 h -0.235 v -0.646 h -1.464 v 0.867 h -0.234 v -0.867 h -0.515 v -0.363 h 0.515 v -0.872 h 0.234 v 0.872 h 1.464 v -0.603 h 0.235 v 0.603 h 1.295 c 0.058,-0.207 0.221,-0.37 0.428,-0.429 v -1.279 h -0.618 v -0.235 h 0.618 v -1.464 h -0.887 v -0.234 h 0.887 v -1.441 h -1.098 v -0.235 h 1.098 v -1.243 h -0.651 v -1.867 c -1.277,0.134 -2.471,0.546 -3.52,1.175 v -0.329 c 1.056,-0.606 2.249,-1.002 3.52,-1.131 v -1.199 h 1.64 v 1.182 c 1.309,0.105 2.538,0.493 3.627,1.102 v 0.326 c -1.081,-0.631 -2.312,-1.035 -3.627,-1.144 v 1.885 h -0.626 v 1.243 h 1.106 v 0.235 h -1.106 v 1.441 h 0.851 v 0.234 h -0.851 v 1.464 h 0.631 v 0.235 h -0.631 v 1.287 c 0.195,0.064 0.348,0.222 0.404,0.421 h 1.328 v -0.603 h 0.234 v 0.603 h 1.465 v -0.872 h 0.234 v 0.872 H 0 v 0.363 h -0.588 v 0.867 h -0.234 v -0.867 h -1.465 v 0.646 h -0.234 v -0.646 h -1.336 c -0.061,0.187 -0.209,0.335 -0.396,0.396 v 1.351 h 0.631 v 0.234 h -0.631 v 1.465 h 0.851 v 0.234 h -0.851 v 1.441 h 1.106 v 0.234 h -1.106 v 1.181 h 0.626 V 0.818 C -2.312,0.708 -1.081,0.305 0,-0.327 V 0 c -1.088,0.609 -2.318,0.997 -3.627,1.102 v 1.181 z m -3.52,-17.83 v 0 c -0.69,0.395 -1.321,0.879 -1.879,1.437 -1.434,1.434 -2.383,3.355 -2.577,5.493 h -1.284 v 1.64 h 1.284 c 0.194,2.138 1.143,4.059 2.577,5.494 0.558,0.557 1.189,1.042 1.879,1.437 v -0.329 c -0.613,-0.367 -1.176,-0.807 -1.678,-1.309 -1.383,-1.383 -2.3,-3.233 -2.494,-5.293 h 1.783 v -0.626 h 1.228 v 1.122 h 0.235 v -1.122 h 0.926 v -0.363 h -0.926 v -1.083 h -0.235 v 1.083 h -1.228 v -0.651 h -1.783 c 0.194,-2.06 1.111,-3.91 2.494,-5.292 0.502,-0.502 1.065,-0.942 1.678,-1.309 z"
             style="fill:#231f20;fill-opacity:1;fill-rule:nonzero;stroke:none"
             id="path2450"
             inkscape:connector-curvature="0" />
        </g>
        <g
           id="g2452"
           transform="translate(310.0891,322.0525)">
          <path
             d="M 0,0 C 0,0.473 0.383,0.856 0.856,0.856 1.329,0.856 1.712,0.473 1.712,0 1.712,-0.473 1.329,-0.856 0.856,-0.856 0.383,-0.856 0,-0.473 0,0"
             style="fill:#231f20;fill-opacity:1;fill-rule:nonzero;stroke:none"
             id="path2454"
             inkscape:connector-curvature="0" />
        </g>
      </g>
    </g>
  </g>
</svg>
